<svg width="44" height="43" viewBox="0 0 44 43" fill="none" xmlns="http://www.w3.org/2000/svg">
<g filter="url(#filter0_d_86_573)">
<path d="M38.4763 35C38.8631 35 39.234 34.8683 39.5075 34.6339C39.781 34.3995 39.9346 34.0815 39.9346 33.75V17.8125C39.9346 17.279 39.812 16.7507 39.5739 16.2578C39.3357 15.765 38.9866 15.3171 38.5464 14.9399C38.1063 14.5626 37.5838 14.2634 37.0088 14.0592C36.4338 13.8551 35.8175 13.75 35.195 13.75H31.1846V4.0625C31.1846 3.529 31.062 3.00073 30.8239 2.50785C30.5857 2.01496 30.2366 1.56712 29.7964 1.18988C29.3563 0.812641 28.8338 0.513399 28.2588 0.309239C27.6838 0.10508 27.0675 0 26.445 0H9.30963C8.14931 0 7.03651 0.395088 6.21604 1.09835C5.39557 1.80161 4.93463 2.75544 4.93463 3.75V33.75C4.93463 34.0815 5.08828 34.3995 5.36177 34.6339C5.63526 34.8683 6.00619 35 6.39296 35H38.4763Z" fill="url(#paint0_linear_86_573)"/>
<path d="M30.4554 27.5C31.0356 27.5 31.592 27.6975 32.0022 28.0492C32.4125 28.4008 32.6429 28.8777 32.6429 29.375V35H22.4346L20.9763 31.875L22.4346 27.5H30.4554Z" fill="url(#paint1_linear_86_573)"/>
<path d="M14.4138 27.5C13.8336 27.5 13.2772 27.6975 12.867 28.0492C12.4567 28.4008 12.2263 28.8777 12.2263 29.375V35H22.4346V27.5H14.4138Z" fill="url(#paint2_linear_86_573)"/>
<path d="M14.4138 10C14.9939 10 15.5503 9.80246 15.9606 9.45083C16.3708 9.09919 16.6013 8.62228 16.6013 8.125C16.6013 7.62772 16.3708 7.15081 15.9606 6.79917C15.5503 6.44754 14.9939 6.25 14.4138 6.25C13.8336 6.25 13.2772 6.44754 12.867 6.79917C12.4567 7.15081 12.2263 7.62772 12.2263 8.125C12.2263 8.62228 12.4567 9.09919 12.867 9.45083C13.2772 9.80246 13.8336 10 14.4138 10ZM14.4138 16.25C14.9939 16.25 15.5503 16.0525 15.9606 15.7008C16.3708 15.3492 16.6013 14.8723 16.6013 14.375C16.6013 13.8777 16.3708 13.4008 15.9606 13.0492C15.5503 12.6975 14.9939 12.5 14.4138 12.5C13.8336 12.5 13.2772 12.6975 12.867 13.0492C12.4567 13.4008 12.2263 13.8777 12.2263 14.375C12.2263 14.8723 12.4567 15.3492 12.867 15.7008C13.2772 16.0525 13.8336 16.25 14.4138 16.25ZM16.6013 20.625C16.6013 21.1223 16.3708 21.5992 15.9606 21.9508C15.5503 22.3025 14.9939 22.5 14.4138 22.5C13.8336 22.5 13.2772 22.3025 12.867 21.9508C12.4567 21.5992 12.2263 21.1223 12.2263 20.625C12.2263 20.1277 12.4567 19.6508 12.867 19.2992C13.2772 18.9475 13.8336 18.75 14.4138 18.75C14.9939 18.75 15.5503 18.9475 15.9606 19.2992C16.3708 19.6508 16.6013 20.1277 16.6013 20.625ZM21.7054 10C22.2856 10 22.842 9.80246 23.2522 9.45083C23.6625 9.09919 23.8929 8.62228 23.8929 8.125C23.8929 7.62772 23.6625 7.15081 23.2522 6.79917C22.842 6.44754 22.2856 6.25 21.7054 6.25C21.1253 6.25 20.5689 6.44754 20.1586 6.79917C19.7484 7.15081 19.5179 7.62772 19.5179 8.125C19.5179 8.62228 19.7484 9.09919 20.1586 9.45083C20.5689 9.80246 21.1253 10 21.7054 10ZM23.8929 14.375C23.8929 14.8723 23.6625 15.3492 23.2522 15.7008C22.842 16.0525 22.2856 16.25 21.7054 16.25C21.1253 16.25 20.5689 16.0525 20.1586 15.7008C19.7484 15.3492 19.5179 14.8723 19.5179 14.375C19.5179 13.8777 19.7484 13.4008 20.1586 13.0492C20.5689 12.6975 21.1253 12.5 21.7054 12.5C22.2856 12.5 22.842 12.6975 23.2522 13.0492C23.6625 13.4008 23.8929 13.8777 23.8929 14.375ZM21.7054 22.5C22.2856 22.5 22.842 22.3025 23.2522 21.9508C23.6625 21.5992 23.8929 21.1223 23.8929 20.625C23.8929 20.1277 23.6625 19.6508 23.2522 19.2992C22.842 18.9475 22.2856 18.75 21.7054 18.75C21.1253 18.75 20.5689 18.9475 20.1586 19.2992C19.7484 19.6508 19.5179 20.1277 19.5179 20.625C19.5179 21.1223 19.7484 21.5992 20.1586 21.9508C20.5689 22.3025 21.1253 22.5 21.7054 22.5ZM31.1846 20.625C31.1846 21.1223 30.9541 21.5992 30.5439 21.9508C30.1337 22.3025 29.5773 22.5 28.9971 22.5C28.4169 22.5 27.8605 22.3025 27.4503 21.9508C27.0401 21.5992 26.8096 21.1223 26.8096 20.625C26.8096 20.1277 27.0401 19.6508 27.4503 19.2992C27.8605 18.9475 28.4169 18.75 28.9971 18.75C29.5773 18.75 30.1337 18.9475 30.5439 19.2992C30.9541 19.6508 31.1846 20.1277 31.1846 20.625Z" fill="url(#paint3_linear_86_573)"/>
</g>
<defs>
<filter id="filter0_d_86_573" x="0.934631" y="0" width="43" height="43" filterUnits="userSpaceOnUse" color-interpolation-filters="sRGB">
<feFlood flood-opacity="0" result="BackgroundImageFix"/>
<feColorMatrix in="SourceAlpha" type="matrix" values="0 0 0 0 0 0 0 0 0 0 0 0 0 0 0 0 0 0 127 0" result="hardAlpha"/>
<feOffset dy="4"/>
<feGaussianBlur stdDeviation="2"/>
<feComposite in2="hardAlpha" operator="out"/>
<feColorMatrix type="matrix" values="0 0 0 0 0 0 0 0 0 0 0 0 0 0 0 0 0 0 0.25 0"/>
<feBlend mode="normal" in2="BackgroundImageFix" result="effect1_dropShadow_86_573"/>
<feBlend mode="normal" in="SourceGraphic" in2="effect1_dropShadow_86_573" result="shape"/>
</filter>
<linearGradient id="paint0_linear_86_573" x1="4.93463" y1="1.09375" x2="37.343" y2="42.584" gradientUnits="userSpaceOnUse">
<stop stop-color="#29C3FF"/>
<stop offset="1" stop-color="#2764E7"/>
</linearGradient>
<linearGradient id="paint1_linear_86_573" x1="22.4346" y1="26.25" x2="28.6483" y2="34.7213" gradientUnits="userSpaceOnUse">
<stop stop-color="#0067BF"/>
<stop offset="1" stop-color="#003580"/>
</linearGradient>
<linearGradient id="paint2_linear_86_573" x1="12.5909" y1="29.1412" x2="18.5239" y2="36.3325" gradientUnits="userSpaceOnUse">
<stop stop-color="#0067BF"/>
<stop offset="1" stop-color="#003580"/>
</linearGradient>
<linearGradient id="paint3_linear_86_573" x1="17.9138" y1="4.445" x2="23.1006" y2="26.2302" gradientUnits="userSpaceOnUse">
<stop stop-color="#FDFDFD"/>
<stop offset="1" stop-color="#B3E0FF"/>
</linearGradient>
</defs>
</svg>
