<svg width="30" height="30" viewBox="0 0 30 30" fill="none" xmlns="http://www.w3.org/2000/svg">
<path d="M16.2508 0.725993C16.3982 0.470812 16.6221 0.266136 16.8924 0.139724C17.1627 0.0133118 17.4661 -0.0287184 17.7616 0.0193336L18.225 0.0955234C19.104 0.23881 19.9422 0.562132 20.6846 1.04432C21.4271 1.5265 22.057 2.15668 22.5332 2.89358C23.0095 3.63048 23.3212 4.45748 23.4481 5.32043C23.575 6.18338 23.5141 7.06282 23.2694 7.90116L22.3778 10.9526H23.6725C24.656 10.9525 25.6259 11.1768 26.5054 11.6076C27.3848 12.0384 28.1495 12.6638 28.7387 13.4342C29.328 14.2047 29.7255 15.0989 29.8998 16.0458C30.0741 16.9928 30.0204 17.9665 29.7429 18.8896L27.5332 26.24C27.2068 27.3256 26.5299 28.2786 25.6037 28.9564C24.6775 29.6342 23.5519 30.0003 22.3953 30H12.8223C11.297 29.9998 9.81007 29.5322 8.57029 28.6629C8.25294 29.0781 7.84098 29.4151 7.36714 29.6472C6.8933 29.8794 6.37064 30.0001 5.84072 30H3.40709C2.50347 30 1.63687 29.6488 0.997913 29.0237C0.35896 28.3986 0 27.5507 0 26.6667L0 14.2859C0 12.4459 1.52638 10.9526 3.40709 10.9526H10.0597C10.1457 10.9523 10.23 10.9298 10.3043 10.8874C10.3785 10.8449 10.4398 10.7839 10.4822 10.7107L16.2508 0.725993ZM9.24781 25.5219L10.0188 26.1505C10.8053 26.7924 11.7983 27.1429 12.8223 27.1429H22.3953C22.9211 27.1432 23.4329 26.977 23.8541 26.669C24.2752 26.361 24.5831 25.9278 24.7316 25.4343L26.9413 18.0839C27.0908 17.5868 27.1198 17.0625 27.026 16.5525C26.9322 16.0425 26.7181 15.5609 26.4008 15.146C26.0835 14.7311 25.6717 14.3943 25.1981 14.1624C24.7245 13.9304 24.2021 13.8096 23.6725 13.8097H20.4425C20.2166 13.8096 19.9937 13.7583 19.7914 13.6596C19.5892 13.561 19.4131 13.4178 19.277 13.2413C19.141 13.0648 19.0486 12.8598 19.0073 12.6424C18.966 12.4251 18.9767 12.2013 19.0388 11.9887L20.462 7.11641C20.7029 6.29129 20.6092 5.40707 20.2005 4.64782C19.7918 3.88856 19.0995 3.31275 18.2678 3.04026L13.0248 12.1164C12.728 12.6301 12.2971 13.0576 11.7762 13.3551C11.2552 13.6526 10.6629 13.8095 10.0597 13.8097H9.24781V25.5219ZM6.32745 13.8097H3.40709C3.278 13.8097 3.1542 13.8598 3.06292 13.9491C2.97164 14.0385 2.92036 14.1596 2.92036 14.2859V26.6667C2.92036 26.9296 3.13842 27.1429 3.40709 27.1429H5.84072C5.96981 27.1429 6.09361 27.0927 6.18489 27.0034C6.27617 26.9141 6.32745 26.793 6.32745 26.6667V13.8097Z" fill="black"/>
</svg>
