<svg width="30" height="30" viewBox="0 0 30 30" fill="none" xmlns="http://www.w3.org/2000/svg">
<path d="M14.3494 28.8169C14.2075 29.0681 13.9918 29.2696 13.7315 29.394C13.4712 29.5184 13.179 29.5598 12.8944 29.5125L12.4481 29.4375C11.6014 29.2965 10.794 28.9782 10.0788 28.5034C9.36361 28.0286 8.75681 27.4081 8.29815 26.6825C7.83949 25.9569 7.53931 25.1425 7.41727 24.2928C7.29523 23.4431 7.35409 22.5772 7.59 21.7519L8.44875 18.75H7.20188C6.25469 18.75 5.32054 18.5292 4.47358 18.1052C3.62662 17.6811 2.89018 17.0654 2.32271 16.3071C1.75524 15.5487 1.37238 14.6685 1.2045 13.7363C1.03663 12.8041 1.08837 11.8456 1.35563 10.9369L3.48375 3.70125C3.7967 2.63722 4.4444 1.70246 5.3307 1.03571C6.217 0.368954 7.29467 0.00574853 8.40375 0H17.6813C19.1438 0.005625 20.565 0.46875 21.7462 1.31625C22.0498 0.910314 22.4432 0.580216 22.8957 0.351847C23.3483 0.123478 23.8475 0.00304742 24.3544 0L26.7394 0C27.606 0.0054477 28.4353 0.353553 29.0462 0.968318C29.6571 1.58308 30 2.41457 30 3.28125V15.4688C30 16.339 29.6543 17.1736 29.0389 17.7889C28.4236 18.4043 27.589 18.75 26.7187 18.75H20.3119C20.2291 18.7502 20.1478 18.7724 20.0763 18.8142C20.0049 18.856 19.9457 18.916 19.905 18.9881L14.3494 28.8169ZM21.0937 4.40813L20.3512 3.78938C19.5932 3.15807 18.6378 2.81242 17.6512 2.8125H8.43C7.92392 2.81255 7.43146 2.9764 7.02623 3.27956C6.62101 3.58272 6.32479 4.0089 6.18188 4.49438L4.05375 11.73C3.90976 12.2193 3.88184 12.7355 3.9722 13.2375C4.06256 13.7395 4.26872 14.2136 4.57431 14.622C4.87989 15.0304 5.27649 15.362 5.7326 15.5903C6.18872 15.8187 6.69179 15.9376 7.20188 15.9375H10.3125C10.5301 15.9375 10.7448 15.9881 10.9396 16.0852C11.1343 16.1823 11.3039 16.3232 11.435 16.497C11.566 16.6708 11.6549 16.8725 11.6947 17.0865C11.7345 17.3005 11.7242 17.5207 11.6644 17.73L10.2938 22.5263C10.0618 23.3385 10.152 24.2089 10.5456 24.9563C10.9392 25.7037 11.6059 26.2705 12.4069 26.5388L17.4563 17.6044C17.7421 17.0986 18.157 16.6778 18.6588 16.3849C19.1605 16.0921 19.7309 15.9377 20.3119 15.9375H21.0937V4.40813ZM23.9062 15.9375H26.7187C26.8431 15.9375 26.9623 15.8881 27.0502 15.8002C27.1381 15.7123 27.1875 15.5931 27.1875 15.4688V3.28125C27.1875 3.15693 27.1381 3.0377 27.0502 2.94979C26.9623 2.86189 26.8431 2.8125 26.7187 2.8125H24.375C24.2507 2.8125 24.1315 2.86189 24.0435 2.94979C23.9556 3.0377 23.9062 3.15693 23.9062 3.28125V15.9375Z" fill="black"/>
</svg>
