<svg width="48" height="48" viewBox="0 0 48 48" fill="none" xmlns="http://www.w3.org/2000/svg">
<path fill-rule="evenodd" clip-rule="evenodd" d="M28 4C16.954 4 8 12.954 8 24C8 35.046 16.954 44 28 44C39.046 44 48 35.046 48 24C48 12.954 39.046 4 28 4ZM21 19C21 18.0807 21.1811 17.1705 21.5328 16.3212C21.8846 15.4719 22.4002 14.7003 23.0503 14.0503C23.7003 13.4002 24.4719 12.8846 25.3212 12.5328C26.1705 12.1811 27.0807 12 28 12C28.9193 12 29.8295 12.1811 30.6788 12.5328C31.5281 12.8846 32.2997 13.4002 32.9497 14.0503C33.5998 14.7003 34.1154 15.4719 34.4672 16.3212C34.8189 17.1705 35 18.0807 35 19C35 20.8565 34.2625 22.637 32.9497 23.9497C31.637 25.2625 29.8565 26 28 26C26.1435 26 24.363 25.2625 23.0503 23.9497C21.7375 22.637 21 20.8565 21 19ZM40.516 33.968C39.0184 35.8507 37.115 37.371 34.9479 38.4154C32.7807 39.4599 30.4057 40.0015 28 40C25.5943 40.0015 23.2193 39.4599 21.0521 38.4154C18.885 37.371 16.9816 35.8507 15.484 33.968C18.726 31.642 23.15 30 28 30C32.85 30 37.274 31.642 40.516 33.968Z" fill="#1E1E1E"/>
</svg>
